<svg xmlns="http://www.w3.org/2000/svg" width="28" height="27" viewBox="0 0 28 27">
  <g id="Group_41244" data-name="Group 41244" transform="translate(12710 18861)">
    <rect id="Rectangle_7329" data-name="Rectangle 7329" width="28" height="27" transform="translate(-12710 -18861)" fill="none"/>
    <path id="emailalt" d="M9.323,6.979.018,2.272V1.163A1.109,1.109,0,0,1,.363.336,1.132,1.132,0,0,1,1.181,0H17.464a1.132,1.132,0,0,1,.818.336,1.109,1.109,0,0,1,.345.827V2.272ZM8.741,8.142H9.9l8.724-4.525v9.178a1.179,1.179,0,0,1-1.163,1.163H1.182a1.117,1.117,0,0,1-.818-.345,1.117,1.117,0,0,1-.345-.818V3.616Z" transform="translate(-12705.322 -18854.479)" fill="#fff"/>
  </g>
</svg>
