<svg id="Group_41299" data-name="Group 41299" xmlns="http://www.w3.org/2000/svg" xmlns:xlink="http://www.w3.org/1999/xlink" width="50" height="40" viewBox="0 0 50 40">
  <defs>
    <clipPath id="clip-path">
      <rect id="Rectangle_7342" data-name="Rectangle 7342" width="50" height="40" fill="none"/>
    </clipPath>
  </defs>
  <g id="Group_41298" data-name="Group 41298" clip-path="url(#clip-path)">
    <path id="Path_27172" data-name="Path 27172" d="M47,31a8.934,8.934,0,0,1-.32,2.38H4.32A8.934,8.934,0,0,1,4,31c0-.21.01-.42.02-.62H46.98c.01.2.02.41.02.62" fill="#9d9fa7"/>
    <path id="Path_27173" data-name="Path 27173" d="M35.88,0H0V33.38H4.32A8.934,8.934,0,0,1,4,31c0-.21.01-.42.02-.62H3V3H29.03V19.02H47V30.38h-.02c.01.2.02.41.02.62a8.934,8.934,0,0,1-.32,2.38H50V17.25ZM32.03,16.02V3h2.43L45.12,16.02Z" fill="#9d9fa7"/>
    <path id="Path_27174" data-name="Path 27174" d="M22,31A9,9,0,0,1,4.32,33.38,8.934,8.934,0,0,1,4,31c0-.21.01-.42.02-.62a9,9,0,0,1,17.96,0c.01.2.02.41.02.62" fill="#fff"/>
    <path id="Path_27175" data-name="Path 27175" d="M21.98,30.38a9,9,0,0,0-17.96,0c-.01.2-.02.41-.02.62a9,9,0,0,0,17.68,2.38A8.934,8.934,0,0,0,22,31c0-.21-.01-.42-.02-.62M13,38.5a7.5,7.5,0,0,1-7.1-5.12A7.249,7.249,0,0,1,5.5,31c0-.21.01-.41.03-.62a7.5,7.5,0,0,1,14.94,0c.02.21.03.41.03.62a7.249,7.249,0,0,1-.4,2.38A7.487,7.487,0,0,1,13,38.5" fill="#e57818"/>
    <path id="Path_27176" data-name="Path 27176" d="M47,31a9,9,0,1,1-18,0c0-.21.01-.42.02-.62a9,9,0,0,1,17.96,0c.01.2.02.41.02.62" fill="#fff"/>
    <path id="Path_27177" data-name="Path 27177" d="M46.98,30.38a9,9,0,0,0-17.96,0c-.01.2-.02.41-.02.62a9,9,0,1,0,18,0c0-.21-.01-.42-.02-.62M38,38.5a7.5,7.5,0,0,1-7.1-5.12A7.249,7.249,0,0,1,30.5,31c0-.21.01-.41.03-.62a7.5,7.5,0,0,1,14.94,0c.02.21.03.41.03.62a7.249,7.249,0,0,1-.4,2.38A7.487,7.487,0,0,1,38,38.5" fill="#e57818"/>
  </g>
</svg>
