<svg id="icons_Q2" data-name="icons Q2" xmlns="http://www.w3.org/2000/svg" width="18.684" height="18.674" viewBox="0 0 18.684 18.674">
  <path id="Path_11" data-name="Path 11" d="M21.363,6.112a1.467,1.467,0,0,0-1.022-.445H6.777L6.6,4.155A1.334,1.334,0,0,0,5.268,3H3.889a.889.889,0,0,0,0,1.778h.978L6.29,16.739A2.623,2.623,0,0,0,5,19.006a2.668,2.668,0,0,0,2.668,2.668A2.757,2.757,0,0,0,10.2,19.893h4.713a2.757,2.757,0,0,0,2.534,1.778,2.668,2.668,0,1,0,0-5.336,2.757,2.757,0,0,0-2.534,1.779H10.2A2.668,2.668,0,0,0,8.025,16.38l-.092-.926H19.181a1.334,1.334,0,0,0,1.29-1.157l1.2-7.028A1.6,1.6,0,0,0,21.363,6.112ZM18.339,19.006a.889.889,0,1,1-.889-.889A.889.889,0,0,1,18.339,19.006Zm-9.782,0a.889.889,0,1,1-.889-.889.889.889,0,0,1,.889.889Zm10.226-5.335H7.713L7,7.446H19.806Z" transform="translate(-3 -3)" fill="#929092"/>
</svg>
