<svg xmlns="http://www.w3.org/2000/svg" width="28.698" height="25.719" viewBox="0 0 28.698 25.719">
  <g id="noun-heart-1742986" transform="translate(-131.516 -84.195)">
    <path id="Path_27037" data-name="Path 27037" d="M139.152,84.2a7.454,7.454,0,0,0-5.413,2.322,8.143,8.143,0,0,0,0,11.182l11.321,11.872h0a1.1,1.1,0,0,0,1.6,0L157.99,97.711a8.14,8.14,0,0,0,0-11.182,7.458,7.458,0,0,0-10.827,0l-1.3,1.345-1.3-1.356a7.455,7.455,0,0,0-5.413-2.322Zm0,2.161a5.289,5.289,0,0,1,3.827,1.69l2.092,2.2a1.1,1.1,0,0,0,1.6,0l2.08-2.184a5.174,5.174,0,0,1,7.643,0,5.942,5.942,0,0,1,0,8.137q-5.263,5.508-10.528,11.01L135.337,96.183a5.944,5.944,0,0,1,0-8.137,5.265,5.265,0,0,1,3.816-1.69Z" transform="translate(0 0)" fill="#c0c1c6"/>
  </g>
</svg>
